<svg clip-rule="evenodd" fill-rule="evenodd" stroke-linejoin="round" stroke-miterlimit="2" viewBox="0 0 32 32" xmlns="http://www.w3.org/2000/svg"><g id="Clone"/><g id="CloneSimple"/><g id="CopyFile"/><g id="CopyFileSimple"/><g id="Clipboard"/><g id="ClipboardText"/><g id="Paste"/><g id="FloppyDisk"/><g id="FloppyDiskBack"/><g id="NoteBlank"/><g id="Note"/><g id="NotePencil"/><g id="File"/><g id="Files"/><g id="FileImport"/><g id="FileExport"/><g id="FileArrowUp"><path d="m17 5v4c0 1.657 1.343 3 3 3h4c.552 0 1-.448 1-1s-.448-1-1-1h-4c-.552 0-1-.448-1-1v-4c0-.552-.448-1-1-1s-1 .448-1 1z"/><path d="m25.999 11.001c.001-.261-.101-.517-.292-.708l-7-7c-.187-.188-.442-.293-.707-.293 0 0-5.828 0-9 0-.796 0-1.559.316-2.121.879-.563.562-.879 1.325-.879 2.121v20c0 .796.316 1.559.879 2.121.562.563 1.325.879 2.121.879h14c.796 0 1.559-.316 2.121-.879.563-.562.879-1.325.879-2.121 0-4.494 0-15 0-15zm-1.999.413v14.586c0 .265-.105.52-.293.707-.187.188-.442.293-.707.293h-14c-.265 0-.52-.105-.707-.293-.188-.187-.293-.442-.293-.707v-20c0-.265.105-.52.293-.707.187-.188.442-.293.707-.293h8.586z"/><path d="m17 23v-6c0-.552-.448-1-1-1s-1 .448-1 1v6c0 .552.448 1 1 1s1-.448 1-1z"/><path d="m13.707 19.707 2.293-2.293s2.293 2.293 2.293 2.293c.39.39 1.024.39 1.414 0s.39-1.024 0-1.414l-3-3c-.39-.391-1.024-.391-1.414 0l-3 3c-.39.39-.39 1.024 0 1.414s1.024.39 1.414 0z"/></g><g id="FileArrowDown"/><g id="FilePlus"/><g id="FileMinus"/><g id="FileDotted"/><g id="FileCode"/><g id="FileX"/><g id="FileSearch"/><g id="FileExclamation"/></svg>