<svg width="512" height="512" viewBox="0 0 512 512" fill="none" xmlns="http://www.w3.org/2000/svg">
  <title>.MDPPT logo</title>
  <defs>
    <clipPath id="logo-clip">
      <circle cx="256" cy="256" r="256"/>
    </clipPath>
  </defs>
  <g clip-path="url(#logo-clip)">
    <rect width="512" height="512" fill="#F5EA00"/>
    <path fill="#FFFFFF" fill-rule="evenodd" d="M71.5 79.5C28.5 124.5 0 186 0 256c0 70 28.5 131.5 71.5 176.5v-70.6l54.8 54.8c11.5 11.5 3.4 31.3-12.9 31.3H86.8C131.7 480.4 186.9 512 256 512c51.3 0 99.1-15.1 139.2-41H334c-32.1 0-48.2-38.8-25.5-61.5l61-61-22.6-22.6-67 67C269.8 402 247 394.8 247 376.5V232H164.2c-22.2 0-33.3-26.8-17.7-42.5l59.4-59.4-32.7-32.7-72 72C89.6 181 71.5 172.8 71.5 156.4V79.5Z"/>
    <path fill="#FFFFFF" d="M0 256c0-25.1 3.6-49.3 10.4-72H72v176H10.4A255.8 255.8 0 0 1 0 256Z"/>
    <path fill="#F5EA00" d="M198.8 279.5v91.4l-51.5-51.5c-11.5-11.5-3.4-31.9 12.8-31.9h38.7Z"/>
  </g>
</svg>
